<svg xmlns="http://www.w3.org/2000/svg" xmlns:xlink="http://www.w3.org/1999/xlink" id="Layer_1" x="0" y="0" version="1.1" viewBox="0 0 292.3 207.3" xml:space="preserve" style="enable-background:new 0 0 292.3 207.3"><style type="text/css">.st0{opacity:.3;fill:#54b7ec}.st1{fill:#00273f}.st2{fill:#014375}.st3{fill:#d2e8ff}.st4{fill:#fff}.st5{fill:#fed95f}.st6{fill:#54b7ec}.st7{fill:#08ac6a}.st8{opacity:.3;fill:url(#SVGID_1_)}.st9{opacity:.4;fill:url(#SVGID_2_)}.st10{fill:none;stroke:#fff;stroke-miterlimit:10}.st11{opacity:.7;fill:#54b7ec}.st12{opacity:.4}.st13,.st14{opacity:.2;fill:url(#SVGID_3_)}.st14{fill:none;stroke:#54b7ec;stroke-miterlimit:10}.st15{clip-path:url(#SVGID_5_)}.st16,.st17{fill:none;stroke:#54b7ec;stroke-miterlimit:10}.st17{stroke:#014375;stroke-width:2}</style><g><rect width="107.6" height="8.3" x="32.8" y="35.7" class="st0"/></g><rect width="29" height="18.4" x="90.5" y="170.9" class="st1"/><rect width="125" height="74.3" x="42.5" y="100.2" class="st2"/><rect width="113" height="61.4" x="48.5" y="106.7" class="st3"/><rect width="164" height="9.2" x="23" y="189.3" class="st4"/><rect width="42.9" height="4.6" x="83.6" y="184.8" class="st2"/><rect width="85.7" height="120.2" x="62.1" y="47.9" class="st4"/><g><path d="M62.1,54.7c0,0,0-3.1,0-6.8c0-3.8,4.5-6.8,10-6.8h65.7c5.5,0,10,3.1,10,6.8c0,3.8,0,6.8,0,6.8" class="st5"/></g><g><g><rect width="4.3" height="4.3" x="120.3" y="46.2" class="st4"/><rect width="4.3" height="4.3" x="127.9" y="46.2" class="st4"/><rect width="4.3" height="4.3" x="135.4" y="46.2" class="st4"/></g></g><rect width="76.6" height="8.5" x="66.7" y="154.3" class="st6"/><rect width="22.6" height="18.5" x="66.7" y="104.8" class="st3"/><rect width="22.6" height="18.5" x="93.7" y="104.8" class="st3"/><rect width="22.6" height="18.5" x="120.7" y="104.8" class="st3"/><rect width="22.6" height="1.8" x="66.7" y="125.2" class="st3"/><rect width="22.6" height="1.8" x="93.7" y="125.2" class="st3"/><rect width="22.6" height="1.8" x="120.7" y="125.2" class="st3"/><rect width="22.6" height="1.8" x="66.7" y="128.9" class="st3"/><rect width="22.6" height="1.8" x="93.7" y="128.9" class="st3"/><rect width="22.6" height="1.8" x="120.7" y="128.9" class="st3"/><rect width="11.3" height="1.8" x="66.7" y="132.5" class="st3"/><rect width="76.6" height="1.8" x="66.7" y="140.5" class="st3"/><rect width="76.6" height="1.8" x="66.7" y="144.1" class="st3"/><rect width="38.3" height="1.8" x="66.7" y="147.8" class="st3"/><rect width="11.3" height="1.8" x="93.7" y="132.5" class="st3"/><rect width="11.3" height="1.8" x="120.7" y="132.5" class="st3"/><rect width="13.4" height="4.3" x="127" y="156.4" class="st4"/><path d="M113.7,189.4c0-5.1,5.1-9.2,11.4-9.2c6.3,0,11.4,4.1,11.4,9.2H113.7z" class="st7"/><g><rect width="18.5" height="29.8" x="195.7" y="119.9" class="st5"/><linearGradient id="SVGID_1_" x1="197.749" x2="208.664" y1="129.177" y2="137.738" gradientUnits="userSpaceOnUse"><stop offset=".172" style="stop-color:#ff6d00"/><stop offset=".995" style="stop-color:#ff6d00;stop-opacity:0"/></linearGradient><rect width="18.5" height="29.8" x="195.7" y="119.9" class="st8"/></g><g><path d="M151.4,217.5v-47.4c0-14.3,11.7-26,26-26h51.5c14.3,0,26,11.7,26,26v47.4" class="st2"/></g><path d="M137.6,189.6c0,0-4.9-2.6-12.6-7.7c0,0-1.2-0.2-5.2,1.1c-2.8,0.9-4.9-2,2.9-6c8.5-4.3,8.3-2,14.3,1.9 c6,3.9,4.6,3,4.6,3L137.6,189.6z" class="st5"/><polygon points="155 193.9 141.8 182 136.5 188.9 143.3 199.7" class="st5"/><polygon points="151.4 188.4 138.5 195.3 151.4 217.5 162.8 205.7" class="st2"/><linearGradient id="SVGID_2_" x1="206.647" x2="206.647" y1="217.131" y2="170.9" gradientUnits="userSpaceOnUse"><stop offset="0" style="stop-color:#014375"/><stop offset=".995" style="stop-color:#014375;stop-opacity:0"/></linearGradient><rect width="65.9" height="46.2" x="173.7" y="170.9" class="st9"/><polygon points="53.6 189.3 38.3 189.3 35.2 164.4 56.7 164.4" class="st7"/><polygon points="56.7 160.7 56.7 157.1 35.2 157.1 35.2 160.7 33.4 160.7 33.4 164.4 58.5 164.4 58.5 160.7" class="st4"/><g><path d="M48.1,174.7c1.8,1.8,2.3,4.2,1.1,5.5c-1.2,1.2-3.7,0.7-5.5-1.1c-1.8-1.8-2.3-4.2-1.1-5.5 C43.9,172.4,46.3,172.9,48.1,174.7z" class="st1"/><line x1="43.8" x2="48.1" y1="174.7" y2="179" class="st10"/></g><g><path d="M197.3,217.5v-29.8c0-14.9,12.2-27,27-27h15.7c14.8,0,27,12.1,27,27v29.8" class="st4"/></g><g><path d="M193.2,8.9c-17.1,0-31,13.9-31,31c0,6.2,1.8,11.9,4.9,16.8l-1.5,5.4l-1.8,6.6l6.6-1.8l5.2-1.4 c5,3.4,11,5.4,17.5,5.4c17.1,0,31-13.9,31-31C224.2,22.8,210.3,8.9,193.2,8.9z" class="st11"/></g><g><rect width="39.5" height="20.5" x="173.7" y="26.5" class="st5"/><g><path d="M199.8,36.8c0,3.5-2.8,6.4-6.4,6.4c-3.5,0-6.4-2.8-6.4-6.4c0-3.5,2.8-6.4,6.4-6.4 C196.9,30.4,199.8,33.3,199.8,36.8z" class="st5"/><path d="M173.7,31.9c3,0,5.4-2.4,5.4-5.4h-5.4L173.7,31.9z" class="st5"/><path d="M213.2,31.9c-3,0-5.4-2.4-5.4-5.4h5.4V31.9z" class="st5"/><path d="M213.2,41.5c-3,0-5.4,2.4-5.4,5.4h5.4V41.5z" class="st5"/><path d="M173.7,41.5c3,0,5.4,2.4,5.4,5.4h-5.4L173.7,41.5z" class="st5"/></g><rect width="39.5" height="8.7" x="173.7" y="46.9" class="st5"/><rect width="39.5" height="2.3" x="173.7" y="46.9" class="st5"/><rect width="39.5" height="2.3" x="173.7" y="51.3" class="st5"/><rect width="5.3" height="29.1" x="190.7" y="26.5" class="st2"/></g><g><rect width="11.3" height="18.1" x="62.3" y="17.6" class="st11"/></g><g><g><rect width="11.3" height="27.1" x="82.3" y="8.6" class="st11"/></g><rect width="6.4" height="9.3" x="84.7" y="24.3" class="st6"/><rect width="17.2" height="2.9" x="79.4" y="11.4" class="st0"/></g><g><g><rect width="11.3" height="25.7" x="48.3" y="10" class="st11"/></g><rect width="11.3" height="3.3" x="48.3" y="14.3" class="st0"/><rect width="11.3" height="3.3" x="48.3" y="19.5" class="st0"/><path d="M57.1,30.5c0,1.7-1.4,3.1-3.1,3.1c-1.7,0-3.1-1.4-3.1-3.1c0-1.7,1.4-3.1,3.1-3.1 C55.7,27.3,57.1,28.7,57.1,30.5z" class="st6"/></g><g><g><rect width="11.5" height="1.5" x="112.2" y="34.2" class="st11"/></g><g><path d="M123,19.3h-5h-5c0,0-7.2,9.2,0,14.9h5h5C130.1,28.4,123,19.3,123,19.3z" class="st11"/></g><g class="st12"><g><g><path d="M126.2,16c-2.6,0.3-4.2,1.3-4.2,1.3c0.5-3.5,5.9-9.2,5.9-9.2c-3.6,0.4-7.1,4.3-7.1,4.3v-0.3 C120,5.8,118,1,118,1s-2,4.8-2.7,11.1v0.3c0,0-3.6-3.9-7.1-4.3c0,0,5.4,5.7,5.9,9.2c0,0-1.6-1-4.2-1.3c0,0,2.4,1.6,3.9,3.3h4.3 h4.3C123.7,17.6,126.2,16,126.2,16z" class="st11"/></g></g></g></g><g><g><rect width="32.6" height="36.7" x="229.2" y="67.5" class="st0"/></g><rect width="21.6" height="27.6" x="234.7" y="72.1" class="st6"/></g><g><g><rect width="16.3" height="18.4" x="255" y="44" class="st0"/></g><rect width="8.8" height="11.3" x="258.8" y="47.5" class="st6"/></g><g><g><rect width="76.6" height="39.2" x="66.7" y="59.1" class="st6"/><linearGradient id="SVGID_3_" x1="105.064" x2="105.064" y1="98.368" y2="59.145" gradientUnits="userSpaceOnUse"><stop offset="0" style="stop-color:#014375"/><stop offset=".995" style="stop-color:#014375;stop-opacity:0"/></linearGradient><rect width="76.6" height="39.2" x="66.7" y="59.1" class="st13"/></g><g><polygon points="66.7 90 75.6 85.1 85.9 91 94.3 86.7 94.3 98.4 66.7 98.4" class="st11"/></g><g><polygon points="109.8 90 120.7 82 134.8 91 143.3 86.7 143.3 98.4 109.8 98.4" class="st11"/></g><path d="M90.4,98.4c0-11.5,6.6-20.8,14.7-20.8c8.1,0,14.7,9.3,14.7,20.8" class="st6"/><path d="M98.3,98.4c0-5.6,3-10.1,6.8-10.1c3.7,0,6.8,4.5,6.8,10.1H98.3z" class="st2"/><line x1="105.1" x2="105.1" y1="85.1" y2="98.4" class="st14"/><g><defs><rect id="SVGID_4_" width="76.6" height="39.2" x="66.7" y="59.1"/></defs><clipPath id="SVGID_5_"><use xlink:href="#SVGID_4_" style="overflow:visible"/></clipPath><g class="st15"><line x1="94" x2="81.6" y1="86.4" y2="99.7" class="st16"/><line x1="116.1" x2="128.5" y1="86.4" y2="99.7" class="st16"/></g></g><path d="M86.6,70.9c0,2.4-1.9,4.3-4.3,4.3c-2.4,0-4.3-1.9-4.3-4.3c0-2.4,1.9-4.3,4.3-4.3 C84.7,66.6,86.6,68.5,86.6,70.9z" class="st4"/></g><path d="M189.1,95.9c0,0-7.3,3.2-8.6,12.1c-1.3,8.9-2.3,10.4-3.7,12.1c-1.4,1.7,2.5,3,4.4,2.4c0,0,0.7,7.4,4.8,13.6 c0,0,1.1,3.2,5.4,2c4.3-1.2,9.3-0.9,11.8-6.5c2.5-5.6,6.5-15.8,3.5-19.9C203.7,107.8,195,92.8,189.1,95.9z" class="st5"/><path d="M197.3,89.2h-18.2c0,0,0.2,12.3,9.7,12.3h11.4V121h3.6l1.1-6.5l5.7,14.7h3.5c0,0,6.9-14.4,6.9-23 C221.2,91,208.7,89.2,197.3,89.2z" class="st2"/><path d="M203.6,118.4c0,0,0.7-5.3,4.5-4.3c4.1,1.1,1.8,8.4-4.5,10.4V118.4z" class="st5"/><ellipse cx="185.4" cy="113.6" class="st2" rx="1" ry="1.8"/><g><path d="M184.1,108.2c0.2-0.7,0.7-1.1,1.3-1.3c0.6-0.2,1.2,0.1,1.7,0.3c0.5,0.2,1,0.5,1.4,0.9c0.4,0.4,0.7,0.8,0.9,1.3 l-0.2,0.1c-0.4-0.2-0.8-0.5-1.2-0.6c-0.4-0.1-0.8-0.2-1.2-0.2c-0.4,0-0.7,0.3-1.1,0.2c-0.4-0.1-0.8-0.2-1.4-0.5L184.1,108.2z" class="st2"/></g><path d="M184.4,129.7c0,0,4.3,0.8,6.1-1.8" class="st17"/></svg>